<svg width="55" height="55" viewBox="0 0 55 55" fill="none" xmlns="http://www.w3.org/2000/svg">
<path d="M48.5547 27.5H45.5469C45.3105 27.5 45.1172 27.6934 45.1172 27.9297V45.1172H9.88281V9.88281H27.0703C27.3066 9.88281 27.5 9.68945 27.5 9.45312V6.44531C27.5 6.20898 27.3066 6.01562 27.0703 6.01562H7.73438C6.78369 6.01562 6.01562 6.78369 6.01562 7.73438V47.2656C6.01562 48.2163 6.78369 48.9844 7.73438 48.9844H47.2656C48.2163 48.9844 48.9844 48.2163 48.9844 47.2656V27.9297C48.9844 27.6934 48.791 27.5 48.5547 27.5Z" fill="#593817"/>
<path d="M19.1158 28.73L19.0137 35.1162C19.0084 35.5942 19.3951 35.9863 19.8731 35.9863H19.8946L26.2325 35.8306C26.3399 35.8252 26.4473 35.7822 26.5225 35.707L48.8609 13.417C49.0274 13.2505 49.0274 12.9766 48.8609 12.8101L42.1846 6.13916C42.0987 6.05322 41.9913 6.01562 41.8785 6.01562C41.7657 6.01562 41.6583 6.05859 41.5723 6.13916L19.2393 28.4292C19.1617 28.5103 19.1176 28.6177 19.1158 28.73ZM22.5264 29.9976L41.8785 10.6885L44.3062 13.1108L24.9434 32.4307L22.4888 32.4897L22.5264 29.9976Z" fill="#593817"/>
</svg>
