<svg width="55" height="55" viewBox="0 0 55 55" fill="none" xmlns="http://www.w3.org/2000/svg">
<path d="M27.5002 20.6252C25.6768 20.6252 23.9281 21.3495 22.6388 22.6388C21.3495 23.9281 20.6252 25.6768 20.6252 27.5002C20.6252 29.3235 21.3495 31.0722 22.6388 32.3615C23.9281 33.6508 25.6768 34.3752 27.5002 34.3752C29.3235 34.3752 31.0722 33.6508 32.3615 32.3615C33.6508 31.0722 34.3752 29.3235 34.3752 27.5002C34.3752 25.6768 33.6508 23.9281 32.3615 22.6388C31.0722 21.3495 29.3235 20.6252 27.5002 20.6252ZM27.5002 16.0418C30.5391 16.0418 33.4536 17.249 35.6024 19.3979C37.7513 21.5468 38.9585 24.4612 38.9585 27.5002C38.9585 30.5391 37.7513 33.4536 35.6024 35.6024C33.4536 37.7513 30.5391 38.9585 27.5002 38.9585C24.4612 38.9585 21.5468 37.7513 19.3979 35.6024C17.249 33.4536 16.0418 30.5391 16.0418 27.5002C16.0418 24.4612 17.249 21.5468 19.3979 19.3979C21.5468 17.249 24.4612 16.0418 27.5002 16.0418ZM42.396 15.4689C42.396 16.2286 42.0942 16.9573 41.557 17.4945C41.0198 18.0317 40.2911 18.3335 39.5314 18.3335C38.7717 18.3335 38.0431 18.0317 37.5058 17.4945C36.9686 16.9573 36.6668 16.2286 36.6668 15.4689C36.6668 14.7092 36.9686 13.9806 37.5058 13.4433C38.0431 12.9061 38.7717 12.6043 39.5314 12.6043C40.2911 12.6043 41.0198 12.9061 41.557 13.4433C42.0942 13.9806 42.396 14.7092 42.396 15.4689ZM27.5002 9.16683C21.8306 9.16683 20.9047 9.18287 18.267 9.29975C16.4704 9.38454 15.265 9.62516 14.1466 10.0606C13.152 10.4456 12.4347 10.9062 11.6716 11.6716C10.9543 12.3646 10.4028 13.2107 10.0583 14.1466C9.62287 15.2695 9.38225 16.4727 9.29975 18.267C9.18058 20.797 9.16683 21.6816 9.16683 27.5002C9.16683 33.1697 9.18287 34.0956 9.29975 36.7333C9.38454 38.5277 9.62516 39.7354 10.0583 40.8514C10.4479 41.8483 10.9062 42.5656 11.667 43.3264C12.4393 44.0964 13.1566 44.557 14.142 44.9375C15.2741 45.3752 16.4795 45.6181 18.267 45.7006C20.797 45.8197 21.6816 45.8335 27.5002 45.8335C33.1697 45.8335 34.0956 45.8175 36.7333 45.7006C38.5254 45.6158 39.7331 45.3752 40.8514 44.942C41.8437 44.5547 42.5656 44.0941 43.3264 43.3333C44.0987 42.561 44.5593 41.8437 44.9397 40.8583C45.3752 39.7285 45.6181 38.5208 45.7006 36.7333C45.8197 34.2033 45.8335 33.3187 45.8335 27.5002C45.8335 21.8306 45.8175 20.9047 45.7006 18.267C45.6158 16.475 45.3752 15.265 44.9397 14.1466C44.5944 13.2116 44.0439 12.3659 43.3287 11.6716C42.636 10.954 41.7899 10.4024 40.8537 10.0583C39.7308 9.62287 38.5254 9.38225 36.7333 9.29975C34.2033 9.18058 33.3187 9.16683 27.5002 9.16683ZM27.5002 4.5835C33.7266 4.5835 34.5035 4.60641 36.9464 4.721C39.387 4.83558 41.0485 5.21829 42.5106 5.78662C44.0231 6.3687 45.2972 7.15704 46.5714 8.42891C47.7367 9.57451 48.6384 10.9603 49.2137 12.4897C49.7797 13.9495 50.1647 15.6133 50.2793 18.0539C50.387 20.4968 50.4168 21.2737 50.4168 27.5002C50.4168 33.7266 50.3939 34.5035 50.2793 36.9464C50.1647 39.387 49.7797 41.0485 49.2137 42.5106C48.64 44.0409 47.7381 45.427 46.5714 46.5714C45.4255 47.7363 44.0398 48.6379 42.5106 49.2137C41.0508 49.7797 39.387 50.1647 36.9464 50.2793C34.5035 50.387 33.7266 50.4168 27.5002 50.4168C21.2737 50.4168 20.4968 50.3939 18.0539 50.2793C15.6133 50.1647 13.9518 49.7797 12.4897 49.2137C10.9597 48.6396 9.57366 47.7377 8.42891 46.5714C7.26339 45.426 6.36167 44.0402 5.78662 42.5106C5.21829 41.0508 4.83558 39.387 4.721 36.9464C4.61329 34.5035 4.5835 33.7266 4.5835 27.5002C4.5835 21.2737 4.60641 20.4968 4.721 18.0539C4.83558 15.611 5.21829 13.9518 5.78662 12.4897C6.36008 10.9593 7.262 9.57319 8.42891 8.42891C9.57399 7.26298 10.9599 6.36121 12.4897 5.78662C13.9518 5.21829 15.611 4.83558 18.0539 4.721C20.4968 4.61329 21.2737 4.5835 27.5002 4.5835Z" fill="#593817"/>
</svg>
