<svg width="55" height="55" viewBox="0 0 55 55" fill="none" xmlns="http://www.w3.org/2000/svg">
<path d="M48.125 37.6292V45.7325C48.1253 46.3127 47.9054 46.8714 47.5099 47.2959C47.1143 47.7203 46.5725 47.979 45.9937 48.0196C44.9923 48.0883 44.1742 48.125 43.5417 48.125C23.2902 48.125 6.875 31.7098 6.875 11.4583C6.875 10.8258 6.90938 10.0077 6.98042 9.00625C7.02103 8.42748 7.27967 7.88565 7.70413 7.4901C8.1286 7.09456 8.6873 6.87474 9.2675 6.875H17.3708C17.6551 6.87471 17.9293 6.98009 18.1402 7.17067C18.3511 7.36125 18.4837 7.62342 18.5121 7.90625C18.5648 8.43333 18.6129 8.85271 18.6587 9.17125C19.1142 12.3496 20.0475 15.4409 21.4271 18.3402C21.6448 18.7985 21.5027 19.3463 21.0902 19.6396L16.1448 23.1733C19.1685 30.219 24.7833 35.8338 31.829 38.8575L35.3581 33.9213C35.5024 33.7196 35.7128 33.5749 35.9528 33.5125C36.1928 33.4501 36.447 33.4739 36.6712 33.5798C39.5703 34.9568 42.6607 35.8878 45.8379 36.3413C46.1565 36.3871 46.5758 36.4375 47.0983 36.4879C47.3807 36.5169 47.6424 36.6496 47.8325 36.8605C48.0226 37.0713 48.1253 37.3453 48.125 37.6292Z" fill="#593817"/>
</svg>
