<svg width="39" height="39" viewBox="0 0 39 39" fill="none" xmlns="http://www.w3.org/2000/svg">
<g clip-path="url(#clip0_20_943)">
<path d="M19.5 0C8.73052 0 0 8.73052 0 19.5C0 30.2701 8.73052 39 19.5 39C30.2701 39 39 30.2701 39 19.5C39 8.73052 30.2701 0 19.5 0ZM19.5 36.6009C10.0919 36.6009 2.4375 28.9081 2.4375 19.4999C2.4375 10.0918 10.0919 2.43742 19.5 2.43742C28.9081 2.43742 36.5625 10.0918 36.5625 19.4999C36.5625 28.908 28.9081 36.6009 19.5 36.6009ZM27.2823 12.3648L15.8413 23.8777L10.689 18.7255C10.2131 18.2496 9.44162 18.2496 8.96509 18.7255C8.48917 19.2014 8.48917 19.9729 8.96509 20.4488L14.9973 26.4816C15.4732 26.9569 16.2447 26.9569 16.7212 26.4816C16.7761 26.4268 16.823 26.367 16.8657 26.3049L29.0069 14.0887C29.4822 13.6128 29.4822 12.8413 29.0069 12.3648C28.5303 11.8889 27.7589 11.8889 27.2823 12.3648Z" fill="#E86F33"/>
</g>
<defs>
<clipPath id="clip0_20_943">
<rect width="39" height="39" fill="white"/>
</clipPath>
</defs>
</svg>
