<svg width="35" height="35" viewBox="0 0 35 35" fill="none" xmlns="http://www.w3.org/2000/svg">
<path d="M14.3502 24.9084C13.9634 24.9083 13.5926 24.7546 13.3191 24.4811L7.71914 18.8811C7.57985 18.7465 7.46875 18.5856 7.39232 18.4077C7.31589 18.2298 7.27566 18.0384 7.27398 17.8448C7.2723 17.6511 7.3092 17.4591 7.38252 17.2799C7.45585 17.1007 7.56413 16.9378 7.70106 16.8009C7.83799 16.664 8.00081 16.5557 8.18004 16.4824C8.35926 16.409 8.55129 16.3722 8.74493 16.3738C8.93857 16.3755 9.12993 16.4157 9.30785 16.4922C9.48577 16.5686 9.64669 16.6797 9.78122 16.819L14.3502 21.3879L25.2191 10.519C25.4942 10.2533 25.8626 10.1064 26.2449 10.1097C26.6273 10.113 26.9931 10.2664 27.2635 10.5368C27.5338 10.8071 27.6872 11.1729 27.6905 11.5553C27.6939 11.9377 27.5469 12.306 27.2812 12.5811L15.3812 24.4811C15.1078 24.7546 14.7369 24.9083 14.3502 24.9084Z" fill="#FFF6EC"/>
</svg>
