<svg width="55" height="55" viewBox="0 0 55 55" fill="none" xmlns="http://www.w3.org/2000/svg">
<path d="M16.6217 42.3822L18.2808 43.3516C21.0788 44.9834 24.2611 45.8401 27.5002 45.8335C31.1262 45.8335 34.6707 44.7583 37.6856 42.7438C40.7005 40.7293 43.0504 37.866 44.438 34.516C45.8256 31.166 46.1887 27.4798 45.4813 23.9235C44.7739 20.3672 43.0278 17.1005 40.4638 14.5365C37.8999 11.9726 34.6332 10.2265 31.0768 9.5191C27.5205 8.8117 23.8343 9.17477 20.4843 10.5624C17.1344 11.95 14.2711 14.2998 12.2566 17.3147C10.2421 20.3296 9.16686 23.8742 9.16686 27.5002C9.16686 30.791 10.0308 33.9466 11.651 36.7218L12.6181 38.381L11.1217 43.8833L16.6217 42.3822ZM4.59269 50.4168L7.69103 39.0318C5.64947 35.5321 4.57687 31.5518 4.58353 27.5002C4.58353 14.8433 14.8433 4.5835 27.5002 4.5835C40.1571 4.5835 50.4169 14.8433 50.4169 27.5002C50.4169 40.157 40.1571 50.4168 27.5002 50.4168C23.4503 50.4234 19.4717 49.3516 15.9731 47.3116L4.59269 50.4168ZM19.2296 16.7477C19.5367 16.7247 19.846 16.7247 20.1531 16.7385C20.2769 16.7477 20.4006 16.7614 20.5244 16.7752C20.8887 16.8164 21.2898 17.0387 21.425 17.3458C22.1079 18.895 22.7725 20.4556 23.4142 22.0208C23.5562 22.3691 23.4714 22.816 23.201 23.2514C23.015 23.5458 22.8139 23.8304 22.5983 24.1039C22.3394 24.4362 21.7825 25.0458 21.7825 25.0458C21.7825 25.0458 21.5556 25.3162 21.6427 25.6531C21.6748 25.7814 21.7802 25.967 21.8764 26.1229L22.0117 26.3406C22.5983 27.3191 23.3867 28.3114 24.3491 29.2464C24.6242 29.5122 24.8923 29.785 25.181 30.0393C26.2535 30.9858 27.4681 31.7581 28.7789 32.331L28.7904 32.3356C28.9852 32.4204 29.0837 32.4662 29.3679 32.5877C29.51 32.6472 29.6566 32.7 29.8056 32.7389C29.9595 32.7781 30.1216 32.7707 30.2714 32.7177C30.4211 32.6647 30.5517 32.5684 30.6467 32.441C32.3058 30.4312 32.4571 30.3006 32.4708 30.3006V30.3052C32.5861 30.1977 32.723 30.1161 32.8724 30.0659C33.0218 30.0157 33.1803 29.998 33.3371 30.0141C33.4746 30.0233 33.6144 30.0485 33.7427 30.1058C34.9596 30.6627 36.951 31.5312 36.951 31.5312L38.2848 32.1293C38.5094 32.237 38.7133 32.4914 38.7202 32.7366C38.7294 32.8902 38.7431 33.1377 38.6904 33.5914C38.6171 34.185 38.4383 34.8977 38.2596 35.2712C38.1371 35.5261 37.9747 35.7598 37.7783 35.9633C37.5471 36.2061 37.2939 36.427 37.0221 36.6233C36.928 36.694 36.8325 36.7628 36.7356 36.8295C36.4506 37.0104 36.1577 37.1786 35.8579 37.3337C35.2679 37.6471 34.6162 37.827 33.9489 37.8608C33.525 37.8837 33.101 37.9158 32.6748 37.8929C32.6564 37.8929 31.3731 37.6935 31.3731 37.6935C28.1149 36.8365 25.1017 35.231 22.5731 33.0047C22.0552 32.5487 21.5762 32.0583 21.0858 31.5702C19.0462 29.542 17.5062 27.3535 16.5712 25.2864C16.0927 24.2719 15.8342 23.1675 15.8127 22.046C15.8032 20.6546 16.2581 19.2998 17.1052 18.196C17.2725 17.9806 17.4306 17.756 17.7033 17.497C17.9944 17.222 18.1777 17.0754 18.3771 16.9745C18.6422 16.8417 18.9313 16.7637 19.2273 16.7454L19.2296 16.7477Z" fill="#593817"/>
</svg>
