<svg width="55" height="55" viewBox="0 0 55 55" fill="none" xmlns="http://www.w3.org/2000/svg">
<path d="M44.9306 16.0305C44.7564 15.3476 44.2614 14.832 43.6954 14.6739C42.6939 14.392 37.8127 13.7503 27.5002 13.7503C17.1877 13.7503 12.311 14.392 11.3004 14.6739C10.7412 14.8297 10.2462 15.3453 10.0697 16.0305C9.81995 17.0022 9.16683 21.0745 9.16683 27.5003C9.16683 33.9262 9.81995 37.9962 10.0697 38.9724C10.2439 39.653 10.7389 40.1687 11.3027 40.3245C12.311 40.6087 17.1877 41.2503 27.5002 41.2503C37.8127 41.2503 42.6916 40.6087 43.7 40.3268C44.2591 40.171 44.7541 39.6553 44.9306 38.9701C45.1804 37.9984 45.8335 33.917 45.8335 27.5003C45.8335 21.0837 45.1804 17.0045 44.9306 16.0305ZM49.3695 14.8916C50.4168 18.9753 50.4168 27.5003 50.4168 27.5003C50.4168 27.5003 50.4168 36.0253 49.3695 40.1091C48.7874 42.3664 47.0847 44.1424 44.9283 44.7428C41.0118 45.8337 27.5002 45.8337 27.5002 45.8337C27.5002 45.8337 13.9954 45.8337 10.072 44.7428C7.90641 44.1332 6.206 42.3595 5.63079 40.1091C4.5835 36.0253 4.5835 27.5003 4.5835 27.5003C4.5835 27.5003 4.5835 18.9753 5.63079 14.8916C6.21287 12.6343 7.91558 10.8582 10.072 10.2578C13.9954 9.16699 27.5002 9.16699 27.5002 9.16699C27.5002 9.16699 41.0118 9.16699 44.9283 10.2578C47.0939 10.8674 48.7943 12.6412 49.3695 14.8916ZM22.9168 35.5212V19.4795L36.6668 27.5003L22.9168 35.5212Z" fill="#593817"/>
</svg>
